<svg xmlns="http://www.w3.org/2000/svg" xmlns:xlink="http://www.w3.org/1999/xlink" viewBox="0 0 64 64"><defs><linearGradient id="a" x1="6" x2="24" y1="42.5" y2="42.5" gradientUnits="userSpaceOnUse"><stop class="stopColor0c408d svgShape" offset="0" stop-color="#0c8d89"/><stop class="stopColor015bbb svgShape" offset="1" stop-color="#009c97"/></linearGradient><linearGradient id="b" x1="40" x2="58" xlink:href="#a"/><linearGradient id="c" x1="27" x2="37" y1="12" y2="12" gradientUnits="userSpaceOnUse"><stop class="stopColor02aff8 svgShape" offset="0" stop-color="#00cfc8"/><stop class="stopColor02dbf8 svgShape" offset="1" stop-color="#02f8ef"/></linearGradient><linearGradient id="d" x1="12" x2="52" y1="34" y2="34" xlink:href="#a"/></defs><path fill="#03fff6" d="M23 39a1 1 0 0 1-.9-.57L15 23.35 7.9 38.43a1 1 0 0 1-1.8-.86l8-17a1 1 0 0 1 1.8 0l8 17a1 1 0 0 1-.47 1.33A1 1 0 0 1 23 39zM57 39a1 1 0 0 1-.91-.57L49 23.35 41.91 38.43a1 1 0 0 1-1.82-.86l8-17a1 1 0 0 1 1.82 0l8 17a1 1 0 0 1-.48 1.33A1 1 0 0 1 57 39z" class="color02dbf8 svgShape"/><path fill="url(#a)" d="M23,37H7a1,1,0,0,0-1,1v1a9,9,0,0,0,18,0V38A1,1,0,0,0,23,37Z"/><path fill="url(#b)" d="M57,37H41a1,1,0,0,0-1,1v1a9,9,0,0,0,18,0V38A1,1,0,0,0,57,37Z"/><circle cx="32" cy="12" r="5" fill="url(#c)"/><path fill="url(#d)" d="M49.89,17H14.11A2.07,2.07,0,0,0,12,18.66,2,2,0,0,0,14,21H26V51h4V37a2,2,0,0,1,2-2h0a2,2,0,0,1,2,2V51h4V21H50a2,2,0,0,0,2-2.34A2.07,2.07,0,0,0,49.89,17Z"/><path fill="#0c8d89" d="M21,51H43a6,6,0,0,1,6,6v0a0,0,0,0,1,0,0H15a0,0,0,0,1,0,0v0A6,6,0,0,1,21,51Z" class="color0c408d svgShape"/></svg>