<svg xmlns="http://www.w3.org/2000/svg" fill-rule="evenodd" clip-rule="evenodd" image-rendering="optimizeQuality" shape-rendering="geometricPrecision" text-rendering="geometricPrecision" viewBox="0 0 512 512"><defs><linearGradient id="a" x1="377.957" x2="377.957" y1="511.911" y2="244.006" gradientUnits="userSpaceOnUse"><stop class="stopColor6600cc svgShape" offset="0" stop-color="#00cfc8"/><stop class="stopColor9900ff svgShape" offset="1" stop-color="#00fff7"/></linearGradient><linearGradient id="b" x1="188.933" x2="188.933" y1="457.018" y2="244.006" gradientUnits="userSpaceOnUse"><stop class="stopColorffff00 svgShape" offset="0" stop-color="#00fff7"/><stop class="stopColorffcc00 svgShape" offset="1" stop-color="#00fff7"/></linearGradient><linearGradient id="c" x1="134.044" x2="134.044" y1=".087" y2="322.886" gradientUnits="userSpaceOnUse"><stop class="stopColor336699 svgShape" offset="0" stop-color="#009c97"/><stop class="stopColor00ccff svgShape" offset="1" stop-color="#03fff6"/></linearGradient><linearGradient id="d" x1="323.069" x2="323.069" y1="322.886" y2="54.98" gradientUnits="userSpaceOnUse"><stop class="stopColor378b4e svgShape" offset="0" stop-color="#378b88"/><stop class="stopColor99cc33 svgShape" offset="1" stop-color="#33ccc7"/></linearGradient></defs><path fill="url(#a)" d="M351 512c-24,0 -42,-19 -42,-42l0 -13 -53 0c-7,0 -12,-5 -12,-12l0 -65c0,-13 0,-42 0,-59l0 -65c0,-7 5,-12 12,-12 6,0 11,4 12,10l165 0c1,-6 6,-10 12,-10 7,0 12,5 12,12l0 53 13 0c23,0 42,18 42,42 0,23 -19,41 -42,41l-13 0 0 53c0,7 -5,12 -12,12l-53 0 0 13c0,23 -18,42 -41,42z"/><path fill="url(#b)" d="M256 457l-65 0c-6,0 -12,-5 -12,-12l0 -25c0,-10 -8,-18 -18,-18 -9,0 -17,8 -17,18l0 25c0,7 -6,12 -12,12l-65 0c-7,0 -12,-5 -12,-12l0 -189c0,-7 5,-12 12,-12 56,0 133,0 189,0 7,0 12,5 12,12l0 53 13 0c23,0 42,18 42,42 0,23 -19,41 -42,41l-13 0 0 53c0,7 -5,12 -12,12z"/><path fill="url(#c)" d="M161 323c-23,0 -41,-19 -41,-42l0 -13 -53 0c-7,0 -12,-5 -12,-12l0 -53 -13 0c-23,0 -42,-18 -42,-42 0,-23 19,-41 42,-41l13 0 0 -53c0,-7 5,-12 12,-12l53 0 0 -13c0,-23 18,-42 41,-42 24,0 42,19 42,42l0 13 53 0c7,0 12,5 12,12l0 65c0,5 -4,10 -9,11l0 37c5,1 9,6 9,11l0 65c0,7 -5,12 -12,12l-53 0 0 13c0,23 -18,42 -42,42z"/><path fill="url(#d)" d="M351 323c-24,0 -42,-19 -42,-42l0 -13 -53 0c-7,0 -12,-5 -12,-12l0 -53 -13 0c-23,0 -42,-18 -42,-42 0,-23 19,-41 42,-41l13 0 0 -53c0,-7 5,-12 12,-12l65 0c6,0 12,5 12,12l0 25c0,10 8,18 18,18 9,0 17,-8 17,-18l0 -25c0,-7 6,-12 12,-12l65 0c7,0 12,5 12,12l0 189c0,7 -5,12 -12,12l-53 0 0 13c0,23 -18,42 -41,42z"/></svg>