
        <svg xmlns="http://www.w3.org/2000/svg" xmlns:xlink="http://www.w3.org/1999/xlink" version="1.1" width="3176.470588235294" 
        height="561.8830035023784" viewBox="0 0 3176.470588235294 561.8830035023784">
			
			<g transform="scale(8.823529411764707) translate(10, 10)">
				<defs id="SvgjsDefs3203"><linearGradient id="SvgjsLinearGradient3208"><stop id="SvgjsStop3209" stop-color="#00ff8f" offset="0"></stop><stop id="SvgjsStop3210" stop-color="#00a1ff" offset="1"></stop></linearGradient></defs><g id="SvgjsG3204" featureKey="5TMTKC-0" transform="matrix(0.541556861941756,0,0,0.541556861941756,-1.6119935991740464,-4.526274300170219)" fill="url(#SvgjsLinearGradient3208)"><path xmlns="http://www.w3.org/2000/svg" d="M18.127,29.497c-3.363,5.156-5.037,10.954-5.161,16.799c-0.358,0.191-0.708,0.388-1.047,0.584  c0.588-5.979,2.599-11.904,6.132-17.269C18.074,29.574,18.1,29.536,18.127,29.497z M95.303,56.635c0,0.021-0.003,0.043-0.003,0.065  c-0.093-3.274-2.66-6.282-7.015-8.765c0.593,8.123-1.391,16.497-6.215,23.825c-11.64,17.681-35.408,22.573-53.085,10.936  c-4.403-2.899-8.013-7.067-10.771-11.189c-0.002,0-0.005-0.507-0.008-0.507h-0.002C8.939,69,3.081,63.362,2.978,57.846  c-0.08-4.241,3.252-7.965,8.94-11.225c0.34-0.196,0.691-0.264,1.049-0.455c4.583-2.437,16.997-4.293,16.997-4.293  s-0.322,1.005-0.411,1.913c-7.06,1.788-12.765,4.33-16.346,7.279c0.807,6.634,3.57,13.116,8.076,18.551  c7.906,2.991,18.979,4.74,31.205,4.512c3.532-0.065,6.958-0.289,10.242-0.661c-0.021-0.079-0.034-0.162-0.034-0.244  c-0.029-1.628,3.161-3.008,7.132-3.081c2.62-0.048,4.925,0.481,6.195,1.32c0.703-0.854,1.363-1.75,1.983-2.692  c4.663-7.079,6.116-15.391,4.742-23.369c-4.089-1.514-8.999-2.697-14.462-3.456c0.736,2.092,1.135,4.344,1.135,6.686  c0,11.169-9.055,20.224-20.224,20.224c-11.168,0-20.223-9.055-20.223-20.224c0-1.657,0.199-3.27,0.578-4.812c0,0-0.185,0.046,0,0  c0.337,3.995,4.002,7,7.843,7c4.063,0,7.36-3.512,7.36-7.842c0-0.136-0.003-0.274-0.011-0.409c-0.002-0.09-0.011-0.18-0.019-0.271  c-0.024-0.311-0.063-0.618-0.122-0.917c-0.183-0.934-0.52-1.806-0.987-2.586c-1.04-1.756-2.718-3.042-4.691-3.485  c-0.204-0.045-0.411-0.082-0.621-0.111c-0.148-0.018-0.3-0.034-0.451-0.045c-0.162-0.011-0.324-0.016-0.488-0.016  c-0.104,0-0.204,0.002-0.305,0.009c-1.604,0.068-3.098,0.681-4.275,1.67c3.671-5.092,9.657-8.408,16.412-8.408  c8.016,0,14.941,4.664,18.214,11.423c0.002,0.008,0.007,0.056,0.011,0.062C73.111,40.809,78.215,42,82.449,44h0.012  c-1.934-9-7.416-17.315-15.909-22.907c-2.45-1.613-5.011-2.923-7.633-3.902c-0.076,0.148-0.165,0.284-0.258,0.425  c-1.813,2.753-5.514,3.512-8.267,1.698c-2.753-1.811-3.515-5.514-1.703-8.267c1.814-2.756,5.511-3.518,8.267-1.704  c1.506,0.992,2.419,2.554,2.634,4.211c3.997,1.027,7.898,2.721,11.543,5.122c10.009,6.591,15.922,17.072,17.051,28.136  C92.632,49.628,95.234,52.972,95.303,56.635z M15.244,66.719c-2.068-4.504-3.246-9.37-3.474-14.309  c-1.795,1.869-2.761,3.882-2.721,5.964C9.107,61.464,11.364,64.315,15.244,66.719z M71.533,75.93  c-0.513,0.059-1.045,0.093-1.595,0.104c-2.177,0.04-4.135-0.321-5.46-0.92c-4.689,0.748-9.729,1.112-14.986,1.21  C40.838,76.487,32.725,76,25.774,74h-0.003c-0.011,0-0.023,0.074-0.034,0.07c1.223,1.054,2.528,2.08,3.915,2.992  C43.215,85.99,60.237,85.112,71.533,75.93z"></path></g><g id="SvgjsG3205" featureKey="nameFeature-0" transform="matrix(1.3657188116831123,0,0,1.3657188116831123,67.72073069264071,3.468942289999756)" fill="#ffffff"><path d="M17.933 18.3323 l-1.2821 1.9477 l-1.2593 -0.82894 c-1.1313 0.40022 -2.8088 0.41734 -5.7944 0.44716 c-0.57876 0.0057618 -1.1124 0.010078 -1.6047 0.010078 c-2.9354 0 -4.411 -0.15537 -5.3538 -1.0922 c-0.98186 -0.9757 -0.97648 -2.4126 -0.96838 -4.5876 c0.0090234 -2.427 0.014648 -3.8916 1.2449 -4.801 c1.0612 -0.7845 2.6026 -0.80516 5.9796 -0.85054 l0.67396 -0.0092774 c4.209 -0.060156 5.951 -0.085 7.0356 0.99038 c0.91764 0.90978 0.91006 2.226 0.89856 4.2182 c-0.00091796 0.14832 -0.0016992 0.302 -0.0023438 0.46118 c-0.0044532 1.1823 -0.0075976 2.0366 -0.13172 2.757 c-0.041856 0.24262 -0.10607 0.52762 -0.22248 0.82034 z M9.574 17.5664 c1.0947 -0.010859 2.0672 -0.020644 2.8756 -0.052168 l-2.6542 -1.7474 l1.2823 -1.9477 l4.0148 2.6432 c0.070098 -0.52422 0.072968 -1.3022 0.076504 -2.2336 c0.00052734 -0.16088 0.0014453 -0.31614 0.0023632 -0.46588 c0.006543 -1.1449 0.01334 -2.3288 -0.20862 -2.5488 c-0.27558 -0.27322 -1.5123 -0.33638 -3.1584 -0.33638 c-0.67736 0 -1.424 0.010723 -2.2018 0.021836 l-0.67606 0.0092774 c-2.4194 0.032442 -4.1674 0.055976 -4.625 0.39406 c-0.2888 0.21346 -0.2935 1.4746 -0.29898 2.9346 c-0.0050976 1.3559 -0.0099414 2.6366 0.28016 2.9248 c0.45554 0.45254 2.914 0.42782 5.2914 0.40428 z M37.227000000000004 8.487 l0.041758 5.7 c0.017129 1.2612 -0.49178 2.4856 -1.4332 3.448 c-0.9982 1.0203 -2.9408 2.242 -6.5268 2.2684 c-0.034786 0.0002539 -0.069706 0.00039062 -0.10424 0.00039062 c-2.7146 0 -4.9816 -0.77976 -6.3926 -2.201 c-0.96994 -0.97702 -1.4953 -2.2218 -1.4805 -3.5064 l-0.041992 -5.6918 l2.3476 -0.017402 l0.042246 5.7166 l-0.00013672 0.012813 c-0.0096876 0.66232 0.26668 1.2957 0.799 1.832 c0.98014 0.98734 2.6886 1.5215 4.8136 1.507 c2.1676 -0.015957 3.8956 -0.57078 4.866 -1.5626 c0.50916 -0.5204 0.77336 -1.1346 0.76394 -1.7765 l0 -0.0083789 l-0.04211 -5.7036 z M47.2954 7.711 l9.1766 12.19 l-2.9508 0 l-2.566 -3.3974 l-7.3197 0 l-2.5286 3.3974 l-2.9177 0 z M45.3962 14.1556 l3.7983 0 l-1.8992 -2.5322 z M72.479 8.593 l2.3476 0 l0 11.25 l-13.59 -7.098 l0 7.2556 l-2.3477 0 l0 -11.25 l13.59 7.098 l0 -7.2556 z M78.1692 8.475 l15.938 0 l0 2.3477 l-6.7954 0 l0 9.0932 l-2.3476 0 l0 -9.0932 l-6.7946 0 l0 -2.3477 z M113.407 8.487 l0.041758 5.7 c0.017129 1.2612 -0.49178 2.4856 -1.4332 3.448 c-0.9982 1.0203 -2.9408 2.242 -6.5268 2.2684 c-0.034786 0.0002539 -0.069706 0.00039062 -0.10424 0.00039062 c-2.7146 0 -4.9816 -0.77976 -6.3926 -2.201 c-0.96994 -0.97702 -1.4953 -2.2218 -1.4805 -3.5064 l-0.041992 -5.6918 l2.3476 -0.017402 l0.042246 5.7166 l-0.00013672 0.012813 c-0.0096876 0.66232 0.26668 1.2957 0.799 1.832 c0.98014 0.98734 2.6886 1.5215 4.8136 1.507 c2.1676 -0.015957 3.8956 -0.57078 4.866 -1.5626 c0.50916 -0.5204 0.77336 -1.1346 0.76394 -1.7765 l0 -0.0083789 l-0.04211 -5.7036 z M124.778 14.0628 l7.9688 -5.3126 l0 11.25 l-2.3477 0 l0 -6.8631 l-5.621 3.7472 l-5.621 -3.7472 l0 6.8631 l-2.3477 0 l0 -11.25 z M159.905 9.649 c0.91776 0.9099 0.9102 2.226 0.89856 4.2182 c-0.00091796 0.14832 -0.0016992 0.302 -0.0023438 0.46118 c-0.0044532 1.1823 -0.0075976 2.0366 -0.13172 2.757 c-0.10568 0.6142 -0.34974 1.4995 -1.2436 2.0954 c-1.1321 0.75466 -2.8232 0.77168 -6.5282 0.8087 c-0.57862 0.0057618 -1.1122 0.010078 -1.6046 0.010078 c-2.9354 0 -4.411 -0.15537 -5.3538 -1.0922 c-0.98198 -0.9757 -0.97648 -2.4126 -0.96838 -4.5876 c0.0090234 -2.4268 0.014512 -3.8916 1.2447 -4.801 c1.0614 -0.7845 2.6028 -0.80516 5.9798 -0.85054 l0.67396 -0.0092774 c4.2088 -0.060156 5.9508 -0.085136 7.0354 0.99024 z M158.471 13.854199999999999 c0.006543 -1.1448 0.013457 -2.3288 -0.20864 -2.5488 c-0.27556 -0.27322 -1.5123 -0.33638 -3.1584 -0.33638 c-0.67736 0 -1.4242 0.010723 -2.2018 0.021836 l-0.67606 0.0092774 c-2.4194 0.032442 -4.1674 0.055976 -4.625 0.39406 c-0.2888 0.21346 -0.2935 1.4744 -0.29898 2.9346 c-0.0050976 1.3559 -0.0099414 2.6366 0.28016 2.9248 c0.4554 0.45254 2.9138 0.42782 5.2914 0.40428 c2.7302 -0.027206 4.7028 -0.046954 5.258 -0.4171 c0.32686 -0.2179 0.33104 -1.3516 0.33692 -2.9208 c0.00052734 -0.16074 0.0014453 -0.316 0.0023632 -0.46588 z M177.73900000000003 8.593 l2.3476 0 l0 11.25 l-13.59 -7.098 l0 7.2556 l-2.3477 0 l0 -11.25 l13.59 7.098 l0 -7.2556 z M199.36700000000002 10.9512 l-13.59 0.000019531 l0 2.1863 l9.0642 0.03375 l-0.0086328 2.3478 l-9.0556 -0.03375 l0 2.1782 l13.59 0 l0 2.3477 l-15.938 0 l0 -11.407 l15.938 0 l0 2.3476 z"></path></g>
			</g>
		</svg>
	