<svg xmlns="http://www.w3.org/2000/svg" fill="none" viewBox="0 0 120 120"><path fill="url(#paint0_linear_14_334)" fill-rule="evenodd" d="M95 47C103.697 49.7551 110 57.8915 110 67.5C110 77.5028 102.704 86.464 92.9954 88.5293C88.273 101.632 75.7305 111 61 111C50.5463 111 41.1946 106.282 34.9576 98.8598H26.9734C22.5845 98.8598 19.0266 95.2544 19.0266 90.807L19.0266 85.0139C13.5626 81.1154 10 74.7238 10 67.5C10 57.4969 17.2776 48.5422 27 46.4717C27 27.7678 42.098 12 61 12C80.3152 12 95 28.1093 95 47ZM37.0474 35.8696C43.1931 29.769 51.6564 26 61 26C70.3436 26 78.8069 29.769 84.9526 35.8696C81.0032 26.5432 71.7657 20 61 20C50.2343 20 40.9968 26.5432 37.0474 35.8696ZM46.9176 98.8597H56.0052C58.1997 98.8597 59.9786 97.0571 59.9786 94.8333C59.9786 92.6096 58.1996 90.8069 56.0052 90.8069L38.9649 90.8069C36.4527 86.8062 35 82.0727 35 77V70.8547C45.754 70.6847 61.8751 68.5425 68.6491 61.9156C69.1074 61.4672 69.8748 61.4709 70.3072 61.9444C72.348 64.1793 78.1868 69.6876 87 70.7872V77C87 91.3594 75.3594 103 61 103C55.8103 103 50.9758 101.48 46.9176 98.8597ZM95 79.335C99.1726 77.0385 102 72.5994 102 67.5C102 62.4006 99.1726 57.9615 95 55.665V79.335ZM29.1298 88.8708C28.3994 88.7907 27.68 88.674 26.9734 88.5227V90.807H29.9203C29.6377 90.1716 29.3739 89.526 29.1298 88.8708ZM87 62.6843V60C87 45.6406 75.3594 34 61 34C46.6406 34 35 45.6406 35 60V62.8536C38.6272 62.7907 43.0137 62.4816 47.3987 61.7874C51.0285 61.2127 54.4399 60.4071 57.295 59.3655C60.2346 58.2931 62.0781 57.1523 63.0547 56.197C66.5848 52.7435 72.5783 52.5676 76.2147 56.5498C77.7179 58.196 81.4901 61.6603 87 62.6843ZM25 79.335C20.8274 77.0385 18 72.5994 18 67.5C18 62.4006 20.8274 57.9615 25 55.665V79.335Z" clip-rule="evenodd"/><defs><linearGradient id="paint0_linear_14_334" x1="60" x2="60" y1="12" y2="111" gradientUnits="userSpaceOnUse"><stop class="stopColor3cc9c0 svgShape" stop-color="#00cfc8"/><stop class="stopColor4282ff svgShape" offset="1" stop-color="#03fff6"/></linearGradient></defs></svg>