<svg xmlns="http://www.w3.org/2000/svg" fill-rule="evenodd" clip-rule="evenodd" image-rendering="optimizeQuality" shape-rendering="geometricPrecision" text-rendering="geometricPrecision" viewBox="0 0 1706.66 1706.66"><defs><linearGradient id="a" x1=".46" x2="1706.19" y1="853.33" y2="853.33" gradientUnits="userSpaceOnUse"><stop class="stopColorffb800 svgShape" offset="0" stop-color="#03fff6"/><stop class="stopColorff5329 svgShape" offset="1" stop-color="#009c97"/></linearGradient></defs><path fill="url(#a)" d="M782.71 1183.49c-355.39 0-536.11-432.64-283.74-685 252.13-252.13 685.01-72.88 685.01 283.74 0 221.76-179.52 401.26-401.27 401.26zm569.01-586.95 69.8 69.8c-8.14 40.75 15.17 88.61 69.95 88.61 107.23 0 87.76-170.24-20.29-142.66l-93.54-93.53c-14.32-14.32-37.54-14.32-51.86 0l-128.97 128.97c8.66 27.16 14.7 55.83 17.89 85.82l137.02-137.01zm-569.01 456.58c-149.37 0-270.9-121.52-270.9-270.88 0-149.37 121.53-270.88 270.9-270.88 149.36 0 270.88 121.53 270.88 270.88 0 149.36-121.52 270.88-270.88 270.88zm-49-150.23c33.82 0 98 8.44 98-50.33 0-57.12-59.02-50.31-98-50.31V902.9zm36.14 71.04c-17.64 0-20.37-14.95-20.43-31.02-23.65 0-55.71 5.67-55.71-20V641.58c0-25.69 32.1-20 55.88-20 .12-3.82.26-7.56.26-11.03 0-26.33 40-26.33 40 0 0 3.58.15 7.45.28 11.4 86.69 6.82 103.26 114.77 49.73 160.29 53.5 45.48 36.96 153.34-49.57 160.28-.02 16.22-2.64 31.41-20.43 31.41zm-36.14-211.69c38.99 0 98 6.76 98-50.33 0-57.62-60.36-50.34-98-50.33v100.66zm-63.19 792.58c-55.67 0-78.91-49.29-69.69-90.39l-96.02-96.03c-14.32-14.32-14.32-37.54 0-51.86l126.2-126.2c26.07 9.59 53.6 16.79 82.47 21.24l-130.89 130.9 69.31 69.31c108.21-24.85 124.28 143.03 18.62 143.03zM72.13 956.43c-95.55 0-95.57-145.09-.02-145.09 55.66 0 78.89 49.24 69.69 90.35l70.11 70.11L355 828.73c3.39 28.94 9.68 57.45 18.59 85.1l-135.75 135.76c-14.31 14.31-37.52 14.32-51.85-.01l-95.21-95.21c-5.76 1.33-11.96 2.06-18.65 2.06zm270.79 336.34c-105.67 0-89.6-167.87 18.62-143.02l88.66-88.65a434.654 434.654 0 0 0 51.16 52.55l-88.83 88.83c9.16 41.09-14.04 90.3-69.61 90.3zM452.7 504.05l-89.31-89.31c-108.06 24.93-124.17-143.03-18.65-143.03 55.56 0 78.76 49.21 69.61 90.3l89.89 89.89c-18.88 16.29-35.49 33.12-51.54 52.15zm-230.22 79.86-70.1 70.1c9.21 41.12-14 90.39-69.69 90.39-105.49 0-89.49-167.92 18.65-143.05l95.22-95.22c14-14 37.84-14 51.84 0l128.52 128.53a418.88 418.88 0 0 0-20.63 83.06L222.47 583.91zm370.66-370.66 137.67 137.67c-28.43 3.44-56.74 9.78-84.5 19.19L515.36 239.17c-14.32-14.32-14.32-37.53 0-51.85l96.02-96.02C602.17 50.18 625.39.92 681.08.92c105.67 0 89.58 167.91-18.66 143.04l-69.28 69.29zm470.62 237.89 87.35-87.35c-9.13-41.1 14.04-90.28 69.59-90.28 105.23 0 89.72 168.11-18.65 143.04l-86.11 86.11a433.28 433.28 0 0 0-52.19-51.52zm-82.7-227.34-69.3-69.3C803.38 179.56 787.87 11.47 893.12 11.47c55.54 0 78.74 49.19 69.6 90.29l96.12 96.12c14.32 14.31 14.32 37.52 0 51.84L933.01 375.54a450.129 450.129 0 0 0-81.84-21.85L981.06 223.8zm461.23 1481.93c-15.24 0-56.63-48.3-75.94-67.65a20.057 20.057 0 0 1-5.87-14.15v-132.4h-132.39c-12.61 0-40.08-27.47-40.08-40.08v-132.4l-132.4.01c-5.31 0-10.39-2.11-14.15-5.87l-119.21-119.21c127.85-43.26 228.96-144.36 272.22-272.21l505.89 505.89c4.77 4.77 6.79 11.59 5.44 18.19l-41.7 202.17a19.978 19.978 0 0 1-15.54 15.54l-206.27 42.16zm88.77-231.69a20.02 20.02 0 0 1-14.15-5.86l-342.24-342.26c-18.65-18.65 9.69-46.91 28.29-28.3l342.24 342.26c12.65 12.65 3.51 34.16-14.14 34.16zm-748.34-387.59c-167.76 0-304.23-136.45-304.23-304.21 0-167.77 136.46-304.21 304.23-304.21 167.75 0 304.21 136.46 304.21 304.21 0 167.76-136.46 304.21-304.21 304.21z"/></svg>