<svg xmlns="http://www.w3.org/2000/svg" data-name="Flat gradient" viewBox="0 0 64 64"><defs><linearGradient id="a" x1="9.05" x2="54.954" y1="32" y2="32" gradientUnits="userSpaceOnUse"><stop class="stopColorffde00 svgShape" offset="0" stop-color="#03fff6"/><stop class="stopColorfd5900 svgShape" offset="1" stop-color="#009c97"/></linearGradient></defs><path fill="url(#a)" d="M54.95,44.469V9.5A5.50116,5.50116,0,0,0,49.46,4H17.8V43.49s-.88.01-1.07.02a6.942,6.942,0,0,0-.93.12V4.07a7.75167,7.75167,0,0,0-6.75,7.68V51.74A8.26029,8.26029,0,0,0,17.3,60l.00958-.002h34.1709a3.4782,3.4782,0,0,0,3.47363-3.47461V44.48926C54.9541,44.48206,54.95013,44.47614,54.95,44.469ZM46.41,24.62a2.2331,2.2331,0,0,1,.48,1.36v1.63a6.99193,6.99193,0,0,1-1.6,4.58,5.678,5.678,0,0,1-2.95,1.85.502.502,0,0,1-.12006.02c-.04.01-4.37.61-5.77,3.02a.83462.83462,0,0,1-.08.12l-.21.26a1.01,1.01,0,0,1-.78.39h-.01a1.01,1.01,0,0,1-.78-.39l-.21-.27a1.04861,1.04861,0,0,1-.08-.11c-1.4-2.41-5.73-3.00995-5.77-3.02a.502.502,0,0,1-.12006-.02c-3.55-.89-4.49-4.71-4.52-4.87a.852.852,0,0,1-.03-.23V25.97a2.227,2.227,0,0,1,.48-1.35c1.87-2.38.58-4.97-.36-6.3a2.15975,2.15975,0,0,1-.09-2.33l2.23-3.83a1.01607,1.01607,0,0,1,1.55-.23c.38.36,3.89,3.38,7.2.03a1.00649,1.00649,0,0,1,1.32-.09c.17.13,4.12,3.09,6.84.12a1.00753,1.00753,0,0,1,.84-.32,1.026,1.026,0,0,1,.76.49l2.23,3.83a2.16056,2.16056,0,0,1-.09,2.33C45.83,19.65,44.54,22.24,46.41,24.62Zm5.0705,33.37805H17.30127l-.008.00158A6.25266,6.25266,0,0,1,16.86,45.51c.15-.01,36.09411-.02,36.09411-.02v5.25415H17.30127a1,1,0,0,0,0,2H52.9541v3.7793A1.47559,1.47559,0,0,1,51.48047,57.99805ZM43.52,14.23c-2.69,1.93-5.93.89-7.85-.29a6.76712,6.76712,0,0,1-8.39.22L25.62,17a.13526.13526,0,0,0,0,.17c1.01,1.44,3.07,5.16.29,8.69a.22319.22319,0,0,0-.05.11v2.84a4.7799,4.7799,0,0,0,2.99,3.28c.58.08,4.43.72,6.53,3.08,2.09-2.36,5.95-3,6.52-3.08a3.60753,3.60753,0,0,0,1.87-1.21,4.91067,4.91067,0,0,0,1.12-3.27V25.98a.27752.27752,0,0,0-.05-.12c-2.78-3.53-.72-7.25.29-8.69a.13526.13526,0,0,0,0-.17ZM38.63,25.76h-6.3a1,1,0,1,1,0-2h6.3a1,1,0,0,1,0,2Zm2.09-4.5H29.91a1,1,0,0,1,0-2H40.72a1,1,0,0,1,0,2Z"/></svg>