<svg xmlns="http://www.w3.org/2000/svg" data-name="Layer 1" viewBox="0 0 64 64"><defs><linearGradient id="a" x1="1" x2="63" y1="32" y2="32" gradientUnits="userSpaceOnUse"><stop class="stopColor0071bc svgShape" offset="0" stop-color="#0b62e4"/><stop class="stopColor93278f svgShape" offset=".76" stop-color="#03fff6"/><stop class="stopColored1e79 svgShape" offset="1" stop-color="#00cfc8"/></linearGradient></defs><path fill="url(#a)" d="M63 62a1 1 0 0 1-1 1H2a1 1 0 0 1-1-1V2a1 1 0 0 1 2 0v57.59L10.6 52c.76-.75 1.45-1.41 2.13-2a57.57 57.57 0 0 1 5.85-4.67 59.06 59.06 0 0 1 11-6c1.25-.53 2.59-1 4.1-1.55h.1a57.13 57.13 0 0 0 12.68-6.18 56.61 56.61 0 0 0 10-8.19l-2.87-2.63a1 1 0 0 1-.27-1 1 1 0 0 1 .82-.69l7.74-1a1 1 0 0 1 .81.25 1 1 0 0 1 .32.79l-.37 7.8a1 1 0 0 1-.62.88 1 1 0 0 1-.38.07 1 1 0 0 1-.68-.26l-3-2.78a58.3 58.3 0 0 1-10.39 8.52 58.78 58.78 0 0 1-13.13 6.31h-.1c-1.45.49-2.75 1-4 1.49a57.24 57.24 0 0 0-10.64 5.83A60 60 0 0 0 14.58 51H25a1 1 0 0 1 0 2H12.42l-.4.4L9.41 56H41a1 1 0 0 1 0 2H7.41l-3 3H62a1 1 0 0 1 1 1ZM9.17 32.59l5.16-3a1 1 0 0 1 1.48.64l.11.48a10.76 10.76 0 0 1 .13 4.29l-1.88 11.11c1-.84 2.13-1.66 3.26-2.45q1.37-.94 2.79-1.83l2-8.14a11.43 11.43 0 0 1 5.06 3.4l.62.73c.29-.13.58-.28.87-.4 1.1-.46 2.27-.91 3.55-1.36l-1.72-2.57a11.13 11.13 0 0 0-2.72-2.84l-1.85-1.36a3.29 3.29 0 0 1-1.15-1.55l-1.08-3a1 1 0 0 1 .37-1.16l3.5-2.44a12.89 12.89 0 0 1-2.48-3.59L7 29a2.11 2.11 0 0 0-1 1.78 2.18 2.18 0 0 0 .23.95 2.1 2.1 0 0 0 2.94.86ZM14.5 22a3.5 3.5 0 1 0-3.5-3.5 3.5 3.5 0 0 0 3.5 3.5ZM46 56a1 1 0 0 0 0 2h2a1 1 0 0 0 0-2Zm-17-5a1 1 0 0 0 0 2h1a1 1 0 0 0 0-2Zm7-40V8.25a1.44 1.44 0 0 0-1.38 1.37A1.44 1.44 0 0 0 36 11Zm3.38 3.39A1.44 1.44 0 0 0 38 13v2.74a1.45 1.45 0 0 0 1.38-1.36ZM26 11.92A11 11 0 1 1 36.92 23 11 11 0 0 1 26 11.92Zm6.62-2.3A3.45 3.45 0 0 0 36 13v2.76a1.56 1.56 0 0 1-1.28-.87.93.93 0 0 0-.86-.5 1 1 0 0 0-.9 1.46 3.56 3.56 0 0 0 3 1.9V19a1 1 0 0 0 1 1 1 1 0 0 0 1-1v-1.26a3.44 3.44 0 0 0 3.38-3.36A3.45 3.45 0 0 0 38 11V8.25a1.56 1.56 0 0 1 1.28.87.93.93 0 0 0 .86.5A1 1 0 0 0 41 8.16a3.54 3.54 0 0 0-3-1.9V5a1 1 0 0 0-1-1 1 1 0 0 0-1 1v1.26a3.44 3.44 0 0 0-3.38 3.36Z"/></svg>