<svg xmlns="http://www.w3.org/2000/svg" fill-rule="evenodd" clip-rule="evenodd" image-rendering="optimizeQuality" shape-rendering="geometricPrecision" text-rendering="geometricPrecision" viewBox="0 0 1707 1707"><defs><linearGradient id="a" x1=".008" x2="1706.65" y1="853.331" y2="853.331" gradientUnits="userSpaceOnUse"><stop class="stopColorec297b svgShape" offset="0" stop-color="#03fff6"/><stop class="stopColordb2776 svgShape" offset=".059" stop-color="#00cfc8"/><stop class="stopColorc0236d svgShape" offset=".169" stop-color="#23c0bb"/><stop class="stopColorad2168 svgShape" offset=".278" stop-color="#21ada9"/><stop class="stopColora21f64 svgShape" offset=".4" stop-color="#1fa29e"/><stop class="stopColor9e1f63 svgShape" offset=".522" stop-color="#1f9e9a"/><stop class="stopColor90278e svgShape" offset=".961" stop-color="#009c97"/><stop class="stopColor90278e svgShape" offset="1" stop-color="#009c97"/></linearGradient></defs><path fill="url(#a)" d="M1534 1433l-1362 0c-95,0 -172,-77 -172,-172l0 -681c0,-95 77,-172 172,-172l568 0 0 47c0,62 51,113 113,113 63,0 114,-51 114,-113l0 -47 567 0c95,0 173,77 173,172l0 681c0,95 -78,172 -173,172zm-681 -905c-40,0 -73,-33 -73,-73l0 -108c0,-41 33,-74 73,-74 41,0 74,33 74,74l0 108c0,40 -33,73 -74,73zm-294 598l-119 0c-12,0 -20,-9 -20,-20l0 -106 -106 0c-11,0 -20,-9 -20,-20l0 -119c0,-11 9,-20 20,-20l106 0 0 -106c0,-11 8,-20 20,-20l119 0c11,0 20,9 20,20l0 106 106 0c11,0 20,9 20,20l0 119c0,11 -9,20 -20,20l-106 0 0 106c0,11 -9,20 -20,20zm939 61l-519 0c-11,0 -20,-9 -20,-20 0,-11 9,-20 20,-20l519 0c12,0 20,9 20,20 0,11 -8,20 -20,20zm0 -246l-519 0c-11,0 -20,-9 -20,-20 0,-11 9,-20 20,-20l519 0c12,0 20,9 20,20 0,11 -8,20 -20,20zm0 -247l-519 0c-11,0 -20,-9 -20,-20 0,-11 9,-20 20,-20l519 0c12,0 20,9 20,20 0,11 -8,20 -20,20zm-999 565c-186,0 -338,-152 -338,-338 0,-187 152,-339 338,-339 187,0 338,152 338,339 0,186 -151,338 -338,338z"/></svg>